<svg xmlns="http://www.w3.org/2000/svg" viewBox="0 0 256.6 231.34"><defs><style>.cls-1{fill:#005063;}</style></defs><g id="Layer_2" data-name="Layer 2"><g id="Objects"><path class="cls-1" d="M0,206.76c0-6.4,3.79-8.27,8.74-8.34a48.74,48.74,0,0,1,12.49,1.28v4.85c-2.83-.25-9.19-.44-10.79-.44-2.7-.06-4.26.13-4.26,3.14v1.57c0,2.56,1,3.11,3.48,3.11h5.1c6.33,0,7.64,5,7.64,8.57v2.15c0,7.33-4.57,8.69-8.94,8.69C8,231.34,4.33,231,1,230v-4.86c1.76.18,7.14.49,11.25.49,1.85,0,4-.31,4-2.79v-1.73c0-1.84-.56-3-2.92-3h-5c-7.79,0-8.34-5.75-8.34-8.56Z"/><path class="cls-1" d="M23.9,198.69H47.77v5.69h-9V231H32.62V204.38H23.9Z"/><path class="cls-1" d="M56.92,198.69l6.3,15.48,6.89-15.48h6.73L66.21,221v10H60V221l-9.84-22.28Z"/><path class="cls-1" d="M80.32,198.69h6.17V223c0,2.34,1.46,2.29,2.74,2.29h11.08V231H87c-3.51,0-6.72-1.3-6.72-6.29Z"/><path class="cls-1" d="M104,205.39c0-5.6,4-6.76,7-6.7,0,0,11.38.31,14.22.7v5.11H112.45c-2.29,0-2.29,1.28-2.29,2.47v5l13,.47v5.07l-13,.42v5c0,2.34,1.45,2.3,2.73,2.3h12.32v5.06c-2.5.34-13.77.75-13.77.75-2.89.13-7.46-.53-7.46-6.48Z"/><path class="cls-1" d="M129.12,198.69h6.18V223c0,2.34,1.45,2.29,2.73,2.29h11.08V231H135.85c-3.52,0-6.73-1.3-6.73-6.29Z"/><path class="cls-1" d="M164.08,198.46c7.63,0,12.95,1.46,12.95,16.6,0,14.25-5,16.1-12.95,16.1s-13-1.41-13-16.1C151.08,199.92,156.66,198.46,164.08,198.46Zm0,27c5.18,0,6.77-1.71,6.77-10.41,0-10.07-1.86-10.9-6.77-10.9s-6.82.62-6.82,10.9C157.26,223.87,158.56,225.47,164.08,225.47Z"/><path class="cls-1" d="M185,198.69l7.19,24.18,7.63-24.18h6.56L195.74,231h-7.15l-10.13-32.3Z"/><path class="cls-1" d="M208,205.39c0-5.6,4-6.76,7-6.7,0,0,11.37.31,14.21.7v5.11H216.46c-2.3,0-2.3,1.28-2.3,2.47v5l13,.47v5.07l-13,.42v5c0,2.34,1.46,2.3,2.74,2.3h12.31v5.06c-2.5.34-13.77.75-13.77.75-2.88.13-7.46-.53-7.46-6.48Z"/><path class="cls-1" d="M232.7,198.69h14.13c5,0,8.8,2.35,8.8,10.07,0,8-3.35,8.94-5.15,9.51L256.6,231h-7l-5.34-12.23-5.43-.61V231H232.7Zm13.53,14.6c2.15,0,3.17-.63,3.17-4.53,0-3.67-1.23-4.58-3.17-4.58H238.9v9.11Z"/><path class="cls-1" d="M200,17.57A60,60,0,0,0,143.12,1.75a72.88,72.88,0,0,1-15.6,114.15A72.87,72.87,0,0,1,111.91,1.75,60,60,0,0,0,55.06,102.46l72.46,72.46L200,102.46A60,60,0,0,0,200,17.57Z"/><path class="cls-1" d="M131.62,47.56a4.11,4.11,0,1,0-4.1,4.1A4.1,4.1,0,0,0,131.62,47.56Z"/><path class="cls-1" d="M131.62,63.81a4.11,4.11,0,1,0-4.1,4.1A4.1,4.1,0,0,0,131.62,63.81Z"/><path class="cls-1" d="M131.62,80.05a4.11,4.11,0,1,0-4.1,4.11A4.09,4.09,0,0,0,131.62,80.05Z"/><path class="cls-1" d="M131.62,96.3a4.11,4.11,0,1,0-4.1,4.1A4.1,4.1,0,0,0,131.62,96.3Z"/><path class="cls-1" d="M143.91,18.41l-12.12,5.16a6.1,6.1,0,0,0-8.55,0l-12.11-5.16a2.48,2.48,0,0,0-3.72,2.46V34.56A2.48,2.48,0,0,0,111.13,37L123,32a6.1,6.1,0,0,0,9.12,0l11.83,5c2,.88,3.71-.23,3.71-2.45V20.87A2.48,2.48,0,0,0,143.91,18.41Z"/></g></g></svg>