<svg xmlns="http://www.w3.org/2000/svg" viewBox="0 0 256.6 256.51"><defs><style>.cls-1{fill:#005063;}</style></defs><g id="Layer_2" data-name="Layer 2"><g id="Objects"><path class="cls-1" d="M0,206.76c0-6.4,3.79-8.27,8.74-8.34a48.74,48.74,0,0,1,12.49,1.28v4.85c-2.83-.25-9.19-.44-10.79-.44-2.7-.06-4.26.13-4.26,3.14v1.57c0,2.56,1,3.11,3.48,3.11h5.1c6.33,0,7.64,5,7.64,8.57v2.15c0,7.33-4.57,8.69-8.94,8.69C8,231.34,4.33,231,1,230v-4.86c1.76.18,7.14.49,11.25.49,1.85,0,4-.31,4-2.79v-1.73c0-1.84-.56-3-2.92-3h-5c-7.79,0-8.34-5.75-8.34-8.56Z"/><path class="cls-1" d="M23.9,198.69H47.77v5.69h-9V231H32.62V204.38H23.9Z"/><path class="cls-1" d="M56.92,198.69l6.3,15.48,6.89-15.48h6.73L66.21,221v10H60V221l-9.84-22.28Z"/><path class="cls-1" d="M80.32,198.69h6.17V223c0,2.34,1.46,2.29,2.74,2.29h11.08V231H87c-3.51,0-6.72-1.3-6.72-6.29Z"/><path class="cls-1" d="M104,205.39c0-5.6,4-6.76,7-6.7,0,0,11.38.31,14.22.7v5.11H112.45c-2.29,0-2.29,1.28-2.29,2.47v5l13,.47v5.07l-13,.42v5c0,2.34,1.45,2.3,2.73,2.3h12.32v5.06c-2.5.34-13.77.75-13.77.75-2.89.13-7.46-.53-7.46-6.48Z"/><path class="cls-1" d="M129.12,198.69h6.18V223c0,2.34,1.45,2.29,2.73,2.29h11.08V231H135.85c-3.52,0-6.73-1.3-6.73-6.29Z"/><path class="cls-1" d="M164.08,198.46c7.63,0,12.95,1.46,12.95,16.6,0,14.25-5,16.1-12.95,16.1s-13-1.41-13-16.1C151.08,199.92,156.66,198.46,164.08,198.46Zm0,27c5.18,0,6.77-1.71,6.77-10.41,0-10.07-1.86-10.9-6.77-10.9s-6.82.62-6.82,10.9C157.26,223.87,158.56,225.47,164.08,225.47Z"/><path class="cls-1" d="M185,198.69l7.19,24.18,7.63-24.18h6.56L195.74,231h-7.15l-10.13-32.3Z"/><path class="cls-1" d="M208,205.39c0-5.6,4-6.76,7-6.7,0,0,11.37.31,14.21.7v5.11H216.46c-2.3,0-2.3,1.28-2.3,2.47v5l13,.47v5.07l-13,.42v5c0,2.34,1.46,2.3,2.74,2.3h12.31v5.06c-2.5.34-13.77.75-13.77.75-2.88.13-7.46-.53-7.46-6.48Z"/><path class="cls-1" d="M232.7,198.69h14.13c5,0,8.8,2.35,8.8,10.07,0,8-3.35,8.94-5.15,9.51L256.6,231h-7l-5.34-12.23-5.43-.61V231H232.7Zm13.53,14.6c2.15,0,3.17-.63,3.17-4.53,0-3.67-1.23-4.58-3.17-4.58H238.9v9.11Z"/><path class="cls-1" d="M5.24,245.3c0-2.9,1.72-3.68,3.95-3.7a28.07,28.07,0,0,1,5.42.54V244c-1.28-.1-4.46-.2-4.93-.2-1.28,0-2.13.07-2.13,1.66v.93c0,1.4.59,1.61,1.75,1.61h2.5c2.79,0,3.34,2.1,3.34,3.72v1.12c0,3.14-2.07,3.69-4.05,3.69A24.31,24.31,0,0,1,5.68,256v-1.84c.8.08,3.2.22,5.06.22.84,0,2.08-.1,2.08-1.45v-1c0-.94-.28-1.58-1.44-1.58H8.93c-3.4,0-3.69-2.3-3.69-3.72Z"/><path class="cls-1" d="M22.24,241.72h2.32v11.42c0,1.05.66,1,1.23,1h5.42v2.18h-6c-1.5,0-2.93-.47-2.93-2.73Z"/><path class="cls-1" d="M43.71,241.62c3.45,0,5.78.66,5.78,7.52,0,6.45-2.19,7.29-5.78,7.29s-5.81-.64-5.81-7.29C37.9,242.28,40.35,241.62,43.71,241.62Zm0,12.63c2.62,0,3.46-.79,3.46-5.11,0-5.08-1.06-5.34-3.46-5.34s-3.5.2-3.5,5.34C40.21,253.55,41,254.25,43.71,254.25Z"/><path class="cls-1" d="M60.89,241.56a23.74,23.74,0,0,1,5.43.61V244c-.12,0-2.83-.31-5-.31-2.36,0-2.84,1.56-2.84,5.33,0,4,.58,5.23,2.79,5.26a7,7,0,0,0,3-.92v-3.12H61.73v-1.49a10.21,10.21,0,0,1,3.49-.5c.42,0,.88,0,1.36.06v8.06H64.89l-.59-1a5.26,5.26,0,0,1-3.39,1.08c-4.14.12-4.76-3.3-4.76-7.49S56.92,241.56,60.89,241.56Z"/><path class="cls-1" d="M78.35,241.72h2.56l4.89,14.63H83.27l-1.12-3.54H77l-1.15,3.54H73.25Zm3.19,9-1.9-5.8-2,5.8Z"/><path class="cls-1" d="M92.52,241.72h2.35l6.53,10.34V241.72h2.32v14.63H101.4l-6.55-10.26v10.26H92.52Z"/><path class="cls-1" d="M120.38,241.56a23.8,23.8,0,0,1,5.43.61V244c-.12,0-2.84-.31-5-.31-2.37,0-2.84,1.56-2.84,5.33,0,4,.57,5.23,2.79,5.26a6.93,6.93,0,0,0,3-.92v-3.12h-2.52v-1.49a10.1,10.1,0,0,1,3.48-.5c.42,0,.88,0,1.36.06v8.06h-1.68l-.6-1a5.25,5.25,0,0,1-3.38,1.08c-4.14.12-4.76-3.3-4.76-7.49S116.4,241.56,120.38,241.56Z"/><path class="cls-1" d="M138.89,241.62c3.46,0,5.78.66,5.78,7.52,0,6.45-2.18,7.29-5.78,7.29s-5.81-.64-5.81-7.29C133.08,242.28,135.53,241.62,138.89,241.62Zm0,12.63c2.63,0,3.46-.79,3.46-5.11,0-5.08-1.06-5.34-3.46-5.34s-3.49.2-3.49,5.34C135.4,253.55,136.15,254.25,138.89,254.25Z"/><path class="cls-1" d="M151.72,244.6a2.61,2.61,0,0,1,2.94-2.88s5.58.21,6.4.32v1.9h-6c-1,0-1,.57-1,1.11V248l6.15.21v1.89l-6.15.19v2.91c0,1.06.66,1,1.24,1h5.78v1.87c-.72.1-6.2.34-6.2.34-1.31.07-3.14-.24-3.14-2.78Z"/><path class="cls-1" d="M167.84,245.3c0-2.9,1.72-3.68,4-3.7a28,28,0,0,1,5.41.54V244c-1.28-.1-4.46-.2-4.92-.2-1.29,0-2.13.07-2.13,1.66v.93c0,1.4.59,1.61,1.74,1.61h2.51c2.79,0,3.33,2.1,3.33,3.72v1.12c0,3.14-2.07,3.69-4,3.69a24.18,24.18,0,0,1-5.41-.56v-1.84c.79.08,3.2.22,5.06.22.83,0,2.07-.1,2.07-1.45v-1c0-.94-.28-1.58-1.43-1.58h-2.45c-3.41,0-3.7-2.3-3.7-3.72Z"/><path class="cls-1" d="M189.84,241.72h2.32v6.47h5.73v-6.47h2.32v14.63h-2.32v-6h-5.73v6h-2.32Z"/><path class="cls-1" d="M207.53,244.6a2.61,2.61,0,0,1,2.94-2.88s5.57.21,6.39.32v1.9h-6c-1,0-1,.57-1,1.11V248l6.14.21v1.89l-6.14.19v2.91c0,1.06.66,1,1.24,1h5.77v1.87c-.72.1-6.19.34-6.19.34-1.31.07-3.14-.24-3.14-2.78Z"/><path class="cls-1" d="M223.63,241.72H230c2.14,0,3.76,1.07,3.76,4.5,0,3.69-1.68,4.08-2.4,4.27l2.88,5.86h-2.59L229,250.66l-3-.28v6h-2.32Zm6.17,6.78c.95,0,1.6-.18,1.6-2.28s-.72-2.37-1.6-2.37H226v4.65Z"/><path class="cls-1" d="M240.89,244.6a2.61,2.61,0,0,1,2.94-2.88s5.57.21,6.39.32v1.9h-6c-1,0-1,.57-1,1.11V248l6.14.21v1.89l-6.14.19v2.91c0,1.06.66,1,1.24,1h5.77v1.87c-.72.1-6.19.34-6.19.34-1.31.07-3.14-.24-3.14-2.78Z"/><path class="cls-1" d="M200,17.57A60,60,0,0,0,143.12,1.75a72.88,72.88,0,0,1-15.6,114.15A72.87,72.87,0,0,1,111.91,1.75,60,60,0,0,0,55.06,102.46l72.46,72.46L200,102.46A60,60,0,0,0,200,17.57Z"/><path class="cls-1" d="M131.62,47.56a4.11,4.11,0,1,0-4.1,4.1A4.1,4.1,0,0,0,131.62,47.56Z"/><path class="cls-1" d="M131.62,63.81a4.11,4.11,0,1,0-4.1,4.1A4.1,4.1,0,0,0,131.62,63.81Z"/><path class="cls-1" d="M131.62,80.05a4.11,4.11,0,1,0-4.1,4.11A4.09,4.09,0,0,0,131.62,80.05Z"/><path class="cls-1" d="M131.62,96.3a4.11,4.11,0,1,0-4.1,4.1A4.1,4.1,0,0,0,131.62,96.3Z"/><path class="cls-1" d="M143.91,18.41l-12.12,5.16a6.1,6.1,0,0,0-8.55,0l-12.11-5.16a2.48,2.48,0,0,0-3.72,2.46V34.56A2.48,2.48,0,0,0,111.13,37L123,32a6.1,6.1,0,0,0,9.12,0l11.83,5c2,.88,3.71-.23,3.71-2.45V20.87A2.48,2.48,0,0,0,143.91,18.41Z"/></g></g></svg>